<mxfile host="app.diagrams.net" modified="2021-02-08T16:21:09.666Z" agent="5.0 (X11)" etag="fXamiGA304slT2hO9PfX" version="14.3.0" type="github" pages="4">
  <diagram id="3egdJl20xEzExwP_9GCn" name="KVS">
    <mxGraphModel dx="1422" dy="695" grid="1" gridSize="10" guides="1" tooltips="1" connect="1" arrows="1" fold="1" page="1" pageScale="1" pageWidth="850" pageHeight="1100" math="0" shadow="0">
      <root>
        <mxCell id="0" />
        <mxCell id="1" parent="0" />
        <mxCell id="FIZt_8nLxlH7YhZO16tD-15" value="&lt;div&gt;&lt;b&gt;&lt;br&gt;&lt;/b&gt;&lt;/div&gt;&lt;div&gt;&lt;b&gt;&lt;br&gt;&lt;/b&gt;&lt;/div&gt;&lt;div&gt;&lt;b&gt;&lt;br&gt;&lt;/b&gt;&lt;/div&gt;&lt;div&gt;&lt;b&gt;&lt;br&gt;&lt;/b&gt;&lt;/div&gt;&lt;div&gt;&lt;b&gt;&lt;br&gt;&lt;/b&gt;&lt;/div&gt;&lt;div&gt;&lt;b&gt;&lt;br&gt;&lt;/b&gt;&lt;/div&gt;&lt;div&gt;&lt;b&gt;&lt;br&gt;&lt;/b&gt;&lt;/div&gt;&lt;div&gt;&lt;b&gt;&lt;br&gt;&lt;/b&gt;&lt;/div&gt;&lt;div&gt;&lt;b&gt;&lt;br&gt;&lt;/b&gt;&lt;/div&gt;&lt;div&gt;&lt;b&gt;&lt;br&gt;&lt;/b&gt;&lt;/div&gt;&lt;div&gt;&lt;b&gt;&lt;br&gt;&lt;/b&gt;&lt;/div&gt;&lt;div&gt;&lt;b&gt;CONSUMERS&lt;/b&gt;&lt;/div&gt;" style="rounded=1;whiteSpace=wrap;html=1;dashed=1;" vertex="1" parent="1">
          <mxGeometry x="470" y="35" width="320" height="210" as="geometry" />
        </mxCell>
        <mxCell id="FIZt_8nLxlH7YhZO16tD-14" value="&lt;div&gt;&lt;b&gt;&lt;br&gt;&lt;/b&gt;&lt;/div&gt;&lt;div&gt;&lt;b&gt;&lt;br&gt;&lt;/b&gt;&lt;/div&gt;&lt;div&gt;&lt;b&gt;&lt;br&gt;&lt;/b&gt;&lt;/div&gt;&lt;div&gt;&lt;b&gt;&lt;br&gt;&lt;/b&gt;&lt;/div&gt;&lt;div&gt;&lt;b&gt;&lt;br&gt;&lt;/b&gt;&lt;/div&gt;&lt;div&gt;&lt;b&gt;&lt;br&gt;&lt;/b&gt;&lt;/div&gt;&lt;div&gt;&lt;b&gt;&lt;br&gt;&lt;/b&gt;&lt;/div&gt;&lt;div&gt;&lt;b&gt;&lt;br&gt;&lt;/b&gt;&lt;/div&gt;&lt;div&gt;&lt;b&gt;&lt;br&gt;&lt;/b&gt;&lt;/div&gt;&lt;div&gt;&lt;b&gt;&lt;br&gt;&lt;/b&gt;&lt;/div&gt;&lt;div&gt;&lt;b&gt;&lt;br&gt;&lt;/b&gt;&lt;/div&gt;&lt;div&gt;&lt;b&gt;PRODUCERS&lt;/b&gt;&lt;/div&gt;" style="rounded=1;whiteSpace=wrap;html=1;dashed=1;" vertex="1" parent="1">
          <mxGeometry x="90" y="35" width="230" height="210" as="geometry" />
        </mxCell>
        <mxCell id="FIZt_8nLxlH7YhZO16tD-12" value="&lt;br&gt;&lt;div&gt;&lt;b&gt;&lt;br&gt;&lt;/b&gt;&lt;/div&gt;&lt;div&gt;&lt;b&gt;&lt;br&gt;&lt;/b&gt;&lt;/div&gt;&lt;div&gt;&lt;b&gt;&lt;br&gt;&lt;/b&gt;&lt;/div&gt;&lt;div&gt;&lt;b&gt;&lt;br&gt;&lt;/b&gt;&lt;/div&gt;&lt;div&gt;&lt;b&gt;&lt;br&gt;&lt;/b&gt;&lt;/div&gt;&lt;div&gt;&lt;b&gt;&lt;br&gt;&lt;/b&gt;&lt;/div&gt;&lt;div&gt;&lt;b&gt;&lt;br&gt;&lt;/b&gt;&lt;/div&gt;&lt;div&gt;&lt;b&gt;&lt;br&gt;&lt;/b&gt;&lt;/div&gt;&lt;div&gt;&lt;b&gt;PROCESSING&lt;br&gt;&lt;/b&gt;&lt;/div&gt;" style="rounded=1;whiteSpace=wrap;html=1;dashed=1;" vertex="1" parent="1">
          <mxGeometry x="250" y="280" width="300" height="190" as="geometry" />
        </mxCell>
        <mxCell id="FIZt_8nLxlH7YhZO16tD-1" value="Amazon Kinesis Video Streams" style="outlineConnect=0;fontColor=#232F3E;gradientColor=none;strokeColor=#ffffff;fillColor=#232F3E;dashed=0;verticalLabelPosition=middle;verticalAlign=bottom;align=center;html=1;whiteSpace=wrap;fontSize=10;fontStyle=1;spacing=3;shape=mxgraph.aws4.productIcon;prIcon=mxgraph.aws4.kinesis_video_streams;" vertex="1" parent="1">
          <mxGeometry x="360" y="80" width="80" height="120" as="geometry" />
        </mxCell>
        <mxCell id="FIZt_8nLxlH7YhZO16tD-3" value="" style="edgeStyle=orthogonalEdgeStyle;rounded=0;orthogonalLoop=1;jettySize=auto;html=1;" edge="1" parent="1" source="FIZt_8nLxlH7YhZO16tD-2" target="FIZt_8nLxlH7YhZO16tD-1">
          <mxGeometry relative="1" as="geometry" />
        </mxCell>
        <mxCell id="FIZt_8nLxlH7YhZO16tD-2" value="&lt;div&gt;&lt;b&gt;PutMedia API&lt;/b&gt;&lt;/div&gt;" style="rounded=1;whiteSpace=wrap;html=1;" vertex="1" parent="1">
          <mxGeometry x="130" y="60" width="120" height="60" as="geometry" />
        </mxCell>
        <mxCell id="FIZt_8nLxlH7YhZO16tD-5" value="" style="edgeStyle=orthogonalEdgeStyle;rounded=0;orthogonalLoop=1;jettySize=auto;html=1;" edge="1" parent="1" source="FIZt_8nLxlH7YhZO16tD-4" target="FIZt_8nLxlH7YhZO16tD-1">
          <mxGeometry relative="1" as="geometry" />
        </mxCell>
        <mxCell id="FIZt_8nLxlH7YhZO16tD-4" value="&lt;div&gt;&lt;b&gt;Video Streams Producer SDK&lt;br&gt;&lt;/b&gt;&lt;/div&gt;" style="rounded=1;whiteSpace=wrap;html=1;" vertex="1" parent="1">
          <mxGeometry x="130" y="140" width="120" height="60" as="geometry" />
        </mxCell>
        <mxCell id="FIZt_8nLxlH7YhZO16tD-9" value="" style="edgeStyle=orthogonalEdgeStyle;rounded=0;orthogonalLoop=1;jettySize=auto;html=1;" edge="1" parent="1" source="FIZt_8nLxlH7YhZO16tD-1" target="FIZt_8nLxlH7YhZO16tD-6">
          <mxGeometry relative="1" as="geometry" />
        </mxCell>
        <mxCell id="FIZt_8nLxlH7YhZO16tD-16" value="" style="edgeStyle=orthogonalEdgeStyle;rounded=0;orthogonalLoop=1;jettySize=auto;html=1;" edge="1" parent="1" source="FIZt_8nLxlH7YhZO16tD-6" target="FIZt_8nLxlH7YhZO16tD-8">
          <mxGeometry relative="1" as="geometry" />
        </mxCell>
        <mxCell id="FIZt_8nLxlH7YhZO16tD-6" value="&lt;div&gt;&lt;b&gt;GetMedia API&lt;br&gt;&lt;/b&gt;&lt;/div&gt;" style="rounded=1;whiteSpace=wrap;html=1;" vertex="1" parent="1">
          <mxGeometry x="500" y="110" width="120" height="60" as="geometry" />
        </mxCell>
        <mxCell id="FIZt_8nLxlH7YhZO16tD-8" value="&lt;div&gt;&lt;b&gt;Video Streams Parser Library&lt;br&gt;&lt;/b&gt;&lt;/div&gt;" style="rounded=1;whiteSpace=wrap;html=1;" vertex="1" parent="1">
          <mxGeometry x="650" y="110" width="120" height="60" as="geometry" />
        </mxCell>
        <mxCell id="FIZt_8nLxlH7YhZO16tD-11" value="" style="edgeStyle=orthogonalEdgeStyle;rounded=0;orthogonalLoop=1;jettySize=auto;html=1;" edge="1" parent="1" source="FIZt_8nLxlH7YhZO16tD-10" target="FIZt_8nLxlH7YhZO16tD-1">
          <mxGeometry relative="1" as="geometry" />
        </mxCell>
        <mxCell id="FIZt_8nLxlH7YhZO16tD-10" value="Amazon Rekognition" style="outlineConnect=0;fontColor=#232F3E;gradientColor=none;strokeColor=#ffffff;fillColor=#232F3E;dashed=0;verticalLabelPosition=middle;verticalAlign=bottom;align=center;html=1;whiteSpace=wrap;fontSize=10;fontStyle=1;spacing=3;shape=mxgraph.aws4.productIcon;prIcon=mxgraph.aws4.rekognition;" vertex="1" parent="1">
          <mxGeometry x="300" y="310" width="80" height="110" as="geometry" />
        </mxCell>
        <mxCell id="FIZt_8nLxlH7YhZO16tD-18" value="" style="edgeStyle=orthogonalEdgeStyle;rounded=0;orthogonalLoop=1;jettySize=auto;html=1;" edge="1" parent="1" source="FIZt_8nLxlH7YhZO16tD-17" target="FIZt_8nLxlH7YhZO16tD-1">
          <mxGeometry relative="1" as="geometry" />
        </mxCell>
        <mxCell id="FIZt_8nLxlH7YhZO16tD-17" value="Amazon SageMaker" style="outlineConnect=0;fontColor=#232F3E;gradientColor=none;strokeColor=#ffffff;fillColor=#232F3E;dashed=0;verticalLabelPosition=middle;verticalAlign=bottom;align=center;html=1;whiteSpace=wrap;fontSize=10;fontStyle=1;spacing=3;shape=mxgraph.aws4.productIcon;prIcon=mxgraph.aws4.sagemaker;" vertex="1" parent="1">
          <mxGeometry x="425" y="310" width="80" height="110" as="geometry" />
        </mxCell>
        <UserObject label="&lt;div&gt;(C) 2021 sudo-code&lt;/div&gt;&lt;div&gt;https://apexcoder7.github.io/&lt;/div&gt;" id="kLUiKmEn_dqfuL1wlNL4-1">
          <mxCell style="text;whiteSpace=wrap;html=1;labelBackgroundColor=#ffffff;fontSize=9;fontFamily=Courier New;strokeColor=#82b366;fillColor=#ffffff;" vertex="1" parent="1">
            <mxGeometry x="605" y="430" width="165" height="30" as="geometry" />
          </mxCell>
        </UserObject>
      </root>
    </mxGraphModel>
  </diagram>
  <diagram id="3G72a1oRtJAwlCcYncec" name="KDS">
    <mxGraphModel dx="1422" dy="695" grid="1" gridSize="10" guides="1" tooltips="1" connect="1" arrows="1" fold="1" page="1" pageScale="1" pageWidth="850" pageHeight="1100" math="0" shadow="0">
      <root>
        <mxCell id="ubfk08OJs4WmA_bFlGEE-0" />
        <mxCell id="ubfk08OJs4WmA_bFlGEE-1" parent="ubfk08OJs4WmA_bFlGEE-0" />
        <mxCell id="E07bmeSrQ7LFwmQAp_uC-1" value="&lt;div&gt;&lt;b&gt;&lt;br&gt;&lt;/b&gt;&lt;/div&gt;&lt;div&gt;&lt;b&gt;&lt;br&gt;&lt;/b&gt;&lt;/div&gt;&lt;div&gt;&lt;b&gt;&lt;br&gt;&lt;/b&gt;&lt;/div&gt;&lt;div&gt;&lt;b&gt;&lt;br&gt;&lt;/b&gt;&lt;/div&gt;&lt;div&gt;&lt;b&gt;&lt;br&gt;&lt;/b&gt;&lt;/div&gt;&lt;div&gt;&lt;b&gt;&lt;br&gt;&lt;/b&gt;&lt;/div&gt;&lt;div&gt;&lt;b&gt;&lt;br&gt;&lt;/b&gt;&lt;/div&gt;&lt;div&gt;&lt;b&gt;&lt;br&gt;&lt;/b&gt;&lt;/div&gt;&lt;div&gt;&lt;b&gt;&lt;br&gt;&lt;/b&gt;&lt;/div&gt;&lt;div&gt;&lt;b&gt;&lt;br&gt;&lt;/b&gt;&lt;/div&gt;&lt;div&gt;&lt;b&gt;&lt;br&gt;&lt;/b&gt;&lt;/div&gt;&lt;div&gt;&lt;b&gt;&lt;br&gt;&lt;/b&gt;&lt;/div&gt;&lt;div&gt;&lt;b&gt;&lt;br&gt;&lt;/b&gt;&lt;/div&gt;&lt;div&gt;&lt;b&gt;&lt;br&gt;&lt;/b&gt;&lt;/div&gt;&lt;div&gt;&lt;b&gt;&lt;br&gt;&lt;/b&gt;&lt;/div&gt;&lt;div&gt;&lt;b&gt;&lt;br&gt;&lt;/b&gt;&lt;/div&gt;&lt;div&gt;&lt;b&gt;&lt;br&gt;&lt;/b&gt;&lt;/div&gt;&lt;div&gt;&lt;b&gt;&lt;br&gt;&lt;/b&gt;&lt;/div&gt;&lt;div&gt;&lt;b&gt;&lt;br&gt;&lt;/b&gt;&lt;/div&gt;&lt;div&gt;&lt;b&gt;&lt;br&gt;&lt;/b&gt;&lt;/div&gt;&lt;div&gt;&lt;b&gt;&lt;br&gt;&lt;/b&gt;&lt;/div&gt;&lt;div&gt;&lt;b&gt;&lt;br&gt;&lt;/b&gt;&lt;/div&gt;&lt;div&gt;&lt;b&gt;&lt;br&gt;&lt;/b&gt;&lt;/div&gt;&lt;div&gt;&lt;b&gt;&lt;br&gt;&lt;/b&gt;&lt;/div&gt;&lt;div&gt;&lt;b&gt;&lt;br&gt;&lt;/b&gt;&lt;/div&gt;&lt;div&gt;&lt;b&gt;&lt;br&gt;&lt;/b&gt;&lt;/div&gt;&lt;div&gt;&lt;b&gt;&lt;br&gt;&lt;/b&gt;&lt;/div&gt;&lt;div&gt;&lt;b&gt;&lt;br&gt;&lt;/b&gt;&lt;/div&gt;&lt;div&gt;&lt;b&gt;&lt;br&gt;&lt;/b&gt;&lt;/div&gt;&lt;div&gt;&lt;b&gt;&lt;br&gt;&lt;/b&gt;&lt;/div&gt;&lt;div&gt;&lt;b&gt;&lt;br&gt;&lt;/b&gt;&lt;/div&gt;&lt;div&gt;&lt;b&gt;&lt;br&gt;&lt;/b&gt;&lt;/div&gt;&lt;div&gt;&lt;b&gt;PRODUCERS&lt;/b&gt;&lt;/div&gt;" style="rounded=1;whiteSpace=wrap;html=1;dashed=1;" vertex="1" parent="ubfk08OJs4WmA_bFlGEE-1">
          <mxGeometry x="60" y="30" width="230" height="500" as="geometry" />
        </mxCell>
        <mxCell id="E07bmeSrQ7LFwmQAp_uC-7" value="&lt;div align=&quot;left&quot;&gt;&lt;b&gt;APP&lt;/b&gt;&lt;/div&gt;&lt;div&gt;&amp;nbsp;&lt;/div&gt;&lt;div&gt;&lt;br&gt;&lt;/div&gt;&lt;div&gt;&lt;br&gt;&lt;/div&gt;&lt;div&gt;&lt;br&gt;&lt;/div&gt;&lt;div&gt;&lt;br&gt;&lt;/div&gt;&lt;div&gt;(e.g. deployed on ECS, EC2 etc.)&lt;/div&gt;" style="rounded=1;whiteSpace=wrap;html=1;align=left;" vertex="1" parent="ubfk08OJs4WmA_bFlGEE-1">
          <mxGeometry x="80" y="67.5" width="180" height="135" as="geometry" />
        </mxCell>
        <mxCell id="E07bmeSrQ7LFwmQAp_uC-5" value="&lt;div&gt;Kinesis Producer Library (KPL)&lt;br&gt;&lt;/div&gt;" style="rounded=1;whiteSpace=wrap;html=1;" vertex="1" parent="ubfk08OJs4WmA_bFlGEE-1">
          <mxGeometry x="130" y="90" width="120" height="60" as="geometry" />
        </mxCell>
        <mxCell id="E07bmeSrQ7LFwmQAp_uC-8" value="" style="edgeStyle=orthogonalEdgeStyle;rounded=0;orthogonalLoop=1;jettySize=auto;html=1;entryX=0;entryY=0.5;entryDx=0;entryDy=0;" edge="1" source="E07bmeSrQ7LFwmQAp_uC-17" target="E07bmeSrQ7LFwmQAp_uC-19" parent="ubfk08OJs4WmA_bFlGEE-1">
          <mxGeometry relative="1" as="geometry">
            <mxPoint x="430" y="135" as="sourcePoint" />
            <mxPoint x="490" y="135" as="targetPoint" />
          </mxGeometry>
        </mxCell>
        <mxCell id="E07bmeSrQ7LFwmQAp_uC-6" value="" style="edgeStyle=orthogonalEdgeStyle;rounded=0;orthogonalLoop=1;jettySize=auto;html=1;exitX=1;exitY=0.5;exitDx=0;exitDy=0;" edge="1" source="E07bmeSrQ7LFwmQAp_uC-1" target="E07bmeSrQ7LFwmQAp_uC-17" parent="ubfk08OJs4WmA_bFlGEE-1">
          <mxGeometry relative="1" as="geometry">
            <mxPoint x="350" y="135" as="targetPoint" />
          </mxGeometry>
        </mxCell>
        <mxCell id="E07bmeSrQ7LFwmQAp_uC-17" value="Amazon Kinesis Data Streams" style="outlineConnect=0;fontColor=#232F3E;gradientColor=none;strokeColor=#ffffff;fillColor=#232F3E;dashed=0;verticalLabelPosition=middle;verticalAlign=bottom;align=center;html=1;whiteSpace=wrap;fontSize=10;fontStyle=1;spacing=3;shape=mxgraph.aws4.productIcon;prIcon=mxgraph.aws4.kinesis_data_streams;" vertex="1" parent="ubfk08OJs4WmA_bFlGEE-1">
          <mxGeometry x="340" y="220" width="80" height="120" as="geometry" />
        </mxCell>
        <mxCell id="E07bmeSrQ7LFwmQAp_uC-19" value="&lt;div&gt;&lt;b&gt;&lt;br&gt;&lt;/b&gt;&lt;/div&gt;&lt;div&gt;&lt;b&gt;&lt;br&gt;&lt;/b&gt;&lt;/div&gt;&lt;div&gt;&lt;b&gt;&lt;br&gt;&lt;/b&gt;&lt;/div&gt;&lt;div&gt;&lt;b&gt;&lt;br&gt;&lt;/b&gt;&lt;/div&gt;&lt;div&gt;&lt;b&gt;&lt;br&gt;&lt;/b&gt;&lt;/div&gt;&lt;div&gt;&lt;b&gt;&lt;br&gt;&lt;/b&gt;&lt;/div&gt;&lt;div&gt;&lt;b&gt;&lt;br&gt;&lt;/b&gt;&lt;/div&gt;&lt;div&gt;&lt;b&gt;&lt;br&gt;&lt;/b&gt;&lt;/div&gt;&lt;div&gt;&lt;b&gt;&lt;br&gt;&lt;/b&gt;&lt;/div&gt;&lt;div&gt;&lt;b&gt;&lt;br&gt;&lt;/b&gt;&lt;/div&gt;&lt;div&gt;&lt;b&gt;&lt;br&gt;&lt;/b&gt;&lt;/div&gt;&lt;div&gt;&lt;b&gt;&lt;br&gt;&lt;/b&gt;&lt;/div&gt;&lt;div&gt;&lt;b&gt;&lt;br&gt;&lt;/b&gt;&lt;/div&gt;&lt;div&gt;&lt;b&gt;&lt;br&gt;&lt;/b&gt;&lt;/div&gt;&lt;div&gt;&lt;b&gt;&lt;br&gt;&lt;/b&gt;&lt;/div&gt;&lt;div&gt;&lt;b&gt;&lt;br&gt;&lt;/b&gt;&lt;/div&gt;&lt;div&gt;&lt;b&gt;&lt;br&gt;&lt;/b&gt;&lt;/div&gt;&lt;div&gt;&lt;b&gt;&lt;br&gt;&lt;/b&gt;&lt;/div&gt;&lt;div&gt;&lt;b&gt;&lt;br&gt;&lt;/b&gt;&lt;/div&gt;&lt;div&gt;&lt;b&gt;&lt;br&gt;&lt;/b&gt;&lt;/div&gt;&lt;div&gt;&lt;b&gt;&lt;br&gt;&lt;/b&gt;&lt;/div&gt;&lt;div&gt;&lt;b&gt;&lt;br&gt;&lt;/b&gt;&lt;/div&gt;&lt;div&gt;&lt;b&gt;&lt;br&gt;&lt;/b&gt;&lt;/div&gt;&lt;div&gt;&lt;b&gt;&lt;br&gt;&lt;/b&gt;&lt;/div&gt;&lt;div&gt;&lt;b&gt;&lt;br&gt;&lt;/b&gt;&lt;/div&gt;&lt;div&gt;&lt;b&gt;&lt;br&gt;&lt;/b&gt;&lt;/div&gt;&lt;div&gt;&lt;b&gt;&lt;br&gt;&lt;/b&gt;&lt;/div&gt;&lt;div&gt;&lt;b&gt;&lt;br&gt;&lt;/b&gt;&lt;/div&gt;&lt;div&gt;&lt;b&gt;&lt;br&gt;&lt;/b&gt;&lt;/div&gt;&lt;div&gt;&lt;b&gt;&lt;br&gt;&lt;/b&gt;&lt;/div&gt;&lt;div&gt;&lt;b&gt;&lt;br&gt;&lt;/b&gt;&lt;/div&gt;&lt;div&gt;&lt;b&gt;&lt;br&gt;&lt;/b&gt;&lt;/div&gt;&lt;div&gt;&lt;b&gt;CONSUMERS&lt;/b&gt;&lt;/div&gt;" style="rounded=1;whiteSpace=wrap;html=1;dashed=1;" vertex="1" parent="ubfk08OJs4WmA_bFlGEE-1">
          <mxGeometry x="480" y="30" width="230" height="500" as="geometry" />
        </mxCell>
        <mxCell id="E07bmeSrQ7LFwmQAp_uC-20" value="&lt;div align=&quot;right&quot;&gt;&lt;b&gt;APP&lt;/b&gt;&lt;/div&gt;&lt;div align=&quot;right&quot;&gt;&amp;nbsp;&lt;/div&gt;&lt;div align=&quot;right&quot;&gt;&lt;br&gt;&lt;/div&gt;&lt;div align=&quot;right&quot;&gt;&lt;br&gt;&lt;/div&gt;&lt;div align=&quot;right&quot;&gt;&lt;br&gt;&lt;/div&gt;&lt;div align=&quot;right&quot;&gt;&lt;br&gt;&lt;/div&gt;&lt;div align=&quot;right&quot;&gt;(e.g. deployed on ECS, EC2 etc.)&lt;/div&gt;" style="rounded=1;whiteSpace=wrap;html=1;align=right;" vertex="1" parent="ubfk08OJs4WmA_bFlGEE-1">
          <mxGeometry x="510" y="67.5" width="180" height="135" as="geometry" />
        </mxCell>
        <mxCell id="E07bmeSrQ7LFwmQAp_uC-21" value="&lt;div&gt;Kinesis Consumer Library (KCL)&lt;br&gt;&lt;/div&gt;" style="rounded=1;whiteSpace=wrap;html=1;" vertex="1" parent="ubfk08OJs4WmA_bFlGEE-1">
          <mxGeometry x="520" y="105" width="120" height="60" as="geometry" />
        </mxCell>
        <mxCell id="E07bmeSrQ7LFwmQAp_uC-22" value="Amazon Kinesis Data Firehose" style="outlineConnect=0;fontColor=#232F3E;gradientColor=none;strokeColor=#ffffff;fillColor=#232F3E;dashed=0;verticalLabelPosition=middle;verticalAlign=bottom;align=center;html=1;whiteSpace=wrap;fontSize=10;fontStyle=1;spacing=3;shape=mxgraph.aws4.productIcon;prIcon=mxgraph.aws4.kinesis_data_firehose;" vertex="1" parent="ubfk08OJs4WmA_bFlGEE-1">
          <mxGeometry x="500" y="230" width="80" height="120" as="geometry" />
        </mxCell>
        <mxCell id="E07bmeSrQ7LFwmQAp_uC-26" value="https://docs.aws.amazon.com/streams/latest/dev/building-producers.html" style="text;html=1;strokeColor=none;fillColor=none;align=center;verticalAlign=middle;whiteSpace=wrap;rounded=0;dashed=1;" vertex="1" parent="ubfk08OJs4WmA_bFlGEE-1">
          <mxGeometry x="160" y="540" width="40" height="40" as="geometry" />
        </mxCell>
        <UserObject label="https://docs.aws.amazon.com/streams/latest/dev/building-consumers.html" link="https://docs.aws.amazon.com/streams/latest/dev/building-consumers.html" id="E07bmeSrQ7LFwmQAp_uC-27">
          <mxCell style="text;whiteSpace=wrap;html=1;align=center;" vertex="1" parent="ubfk08OJs4WmA_bFlGEE-1">
            <mxGeometry x="525" y="530" width="150" height="30" as="geometry" />
          </mxCell>
        </UserObject>
        <mxCell id="E07bmeSrQ7LFwmQAp_uC-28" value="&lt;h1 class=&quot;topictitle&quot; id=&quot;developing-producers-with-sdk&quot; style=&quot;font-size: 13px&quot; align=&quot;center&quot;&gt;&lt;font style=&quot;font-size: 13px&quot;&gt;Kinesis Data Streams API&lt;/font&gt;&lt;/h1&gt;&amp;nbsp;(PutRecords called from any compute e.g. lambda, EC2 etc)" style="rounded=1;whiteSpace=wrap;html=1;align=center;" vertex="1" parent="ubfk08OJs4WmA_bFlGEE-1">
          <mxGeometry x="80" y="246.25" width="180" height="67.5" as="geometry" />
        </mxCell>
        <mxCell id="E07bmeSrQ7LFwmQAp_uC-29" value="&lt;h1 class=&quot;topictitle&quot; id=&quot;writing-with-agents&quot; style=&quot;font-size: 13px&quot;&gt;&lt;font style=&quot;font-size: 13px&quot;&gt;Kinesis Agent&lt;/font&gt;&lt;/h1&gt;&lt;font style=&quot;font-size: 13px&quot;&gt;&amp;nbsp;(Filesystem monitoring Java app)&lt;/font&gt;" style="rounded=1;whiteSpace=wrap;html=1;align=center;" vertex="1" parent="ubfk08OJs4WmA_bFlGEE-1">
          <mxGeometry x="80" y="370" width="180" height="67.5" as="geometry" />
        </mxCell>
        <mxCell id="E07bmeSrQ7LFwmQAp_uC-31" value="AWS Lambda" style="outlineConnect=0;fontColor=#232F3E;gradientColor=none;strokeColor=#ffffff;fillColor=#232F3E;dashed=0;verticalLabelPosition=middle;verticalAlign=bottom;align=center;html=1;whiteSpace=wrap;fontSize=10;fontStyle=1;spacing=3;shape=mxgraph.aws4.productIcon;prIcon=mxgraph.aws4.lambda;" vertex="1" parent="ubfk08OJs4WmA_bFlGEE-1">
          <mxGeometry x="500" y="360" width="80" height="100" as="geometry" />
        </mxCell>
        <mxCell id="E07bmeSrQ7LFwmQAp_uC-32" value="Amazon Kinesis Data Analytics" style="outlineConnect=0;fontColor=#232F3E;gradientColor=none;strokeColor=#ffffff;fillColor=#232F3E;dashed=0;verticalLabelPosition=middle;verticalAlign=bottom;align=center;html=1;whiteSpace=wrap;fontSize=10;fontStyle=1;spacing=3;shape=mxgraph.aws4.productIcon;prIcon=mxgraph.aws4.kinesis_data_analytics;" vertex="1" parent="ubfk08OJs4WmA_bFlGEE-1">
          <mxGeometry x="610" y="230" width="80" height="120" as="geometry" />
        </mxCell>
        <UserObject label="&lt;div&gt;(C) 2021 sudo-code&lt;/div&gt;&lt;div&gt;https://apexcoder7.github.io/&lt;/div&gt;" id="Kmy6AuZ7RV1UGT7UhEMJ-0">
          <mxCell style="text;whiteSpace=wrap;html=1;labelBackgroundColor=#ffffff;fontSize=9;fontFamily=Courier New;strokeColor=#82b366;fillColor=#ffffff;" vertex="1" parent="ubfk08OJs4WmA_bFlGEE-1">
            <mxGeometry x="310" y="530" width="165" height="30" as="geometry" />
          </mxCell>
        </UserObject>
      </root>
    </mxGraphModel>
  </diagram>
  <diagram id="QE7basiI9hIk8pummKc8" name="KDF">
    <mxGraphModel dx="1422" dy="695" grid="1" gridSize="10" guides="1" tooltips="1" connect="1" arrows="1" fold="1" page="1" pageScale="1" pageWidth="850" pageHeight="1100" math="0" shadow="0">
      <root>
        <mxCell id="szwfdQcTvEP1srSUGv-F-0" />
        <mxCell id="szwfdQcTvEP1srSUGv-F-1" parent="szwfdQcTvEP1srSUGv-F-0" />
        <mxCell id="_ucVeFDgrDlcd-M4NOFn-0" value="&lt;div&gt;&lt;b&gt;&lt;br&gt;&lt;/b&gt;&lt;/div&gt;&lt;div&gt;&lt;b&gt;&lt;br&gt;&lt;/b&gt;&lt;/div&gt;&lt;div&gt;&lt;b&gt;&lt;br&gt;&lt;/b&gt;&lt;/div&gt;&lt;div&gt;&lt;b&gt;&lt;br&gt;&lt;/b&gt;&lt;/div&gt;&lt;div&gt;&lt;b&gt;&lt;br&gt;&lt;/b&gt;&lt;/div&gt;&lt;div&gt;&lt;b&gt;&lt;br&gt;&lt;/b&gt;&lt;/div&gt;&lt;div&gt;&lt;b&gt;&lt;br&gt;&lt;/b&gt;&lt;/div&gt;&lt;div&gt;&lt;b&gt;&lt;br&gt;&lt;/b&gt;&lt;/div&gt;&lt;div&gt;&lt;b&gt;&lt;br&gt;&lt;/b&gt;&lt;/div&gt;&lt;div&gt;&lt;b&gt;&lt;br&gt;&lt;/b&gt;&lt;/div&gt;&lt;div&gt;&lt;b&gt;&lt;br&gt;&lt;/b&gt;&lt;/div&gt;&lt;div&gt;&lt;b&gt;&lt;br&gt;&lt;/b&gt;&lt;/div&gt;&lt;div&gt;&lt;b&gt;&lt;br&gt;&lt;/b&gt;&lt;/div&gt;&lt;div&gt;&lt;b&gt;&lt;br&gt;&lt;/b&gt;&lt;/div&gt;&lt;div&gt;&lt;b&gt;&lt;br&gt;&lt;/b&gt;&lt;/div&gt;&lt;div&gt;&lt;b&gt;&lt;br&gt;&lt;/b&gt;&lt;/div&gt;&lt;div&gt;&lt;b&gt;&lt;br&gt;&lt;/b&gt;&lt;/div&gt;&lt;div&gt;&lt;b&gt;&lt;br&gt;&lt;/b&gt;&lt;/div&gt;&lt;div&gt;&lt;b&gt;&lt;br&gt;&lt;/b&gt;&lt;/div&gt;&lt;div&gt;&lt;b&gt;&lt;br&gt;&lt;/b&gt;&lt;/div&gt;&lt;div&gt;&lt;b&gt;&lt;br&gt;&lt;/b&gt;&lt;/div&gt;&lt;div&gt;&lt;b&gt;&lt;br&gt;&lt;/b&gt;&lt;/div&gt;&lt;div&gt;&lt;b&gt;&lt;br&gt;&lt;/b&gt;&lt;/div&gt;&lt;div&gt;&lt;b&gt;&lt;br&gt;&lt;/b&gt;&lt;/div&gt;&lt;div&gt;&lt;b&gt;&lt;br&gt;&lt;/b&gt;&lt;/div&gt;&lt;div&gt;&lt;b&gt;DELIVERY DESTINATION (CONSUMERS)&lt;/b&gt;&lt;/div&gt;" style="rounded=1;whiteSpace=wrap;html=1;dashed=1;" vertex="1" parent="szwfdQcTvEP1srSUGv-F-1">
          <mxGeometry x="490" y="30" width="260" height="420" as="geometry" />
        </mxCell>
        <mxCell id="_ucVeFDgrDlcd-M4NOFn-1" value="&lt;div&gt;&lt;b&gt;&lt;br&gt;&lt;/b&gt;&lt;/div&gt;&lt;div&gt;&lt;b&gt;&lt;br&gt;&lt;/b&gt;&lt;/div&gt;&lt;div&gt;&lt;b&gt;&lt;br&gt;&lt;/b&gt;&lt;/div&gt;&lt;div&gt;&lt;b&gt;&lt;br&gt;&lt;/b&gt;&lt;/div&gt;&lt;div&gt;&lt;b&gt;&lt;br&gt;&lt;/b&gt;&lt;/div&gt;&lt;div&gt;&lt;b&gt;&lt;br&gt;&lt;/b&gt;&lt;/div&gt;&lt;div&gt;&lt;b&gt;&lt;br&gt;&lt;/b&gt;&lt;/div&gt;&lt;div&gt;&lt;b&gt;&lt;br&gt;&lt;/b&gt;&lt;/div&gt;&lt;div&gt;&lt;b&gt;&lt;br&gt;&lt;/b&gt;&lt;/div&gt;&lt;div&gt;&lt;b&gt;&lt;br&gt;&lt;/b&gt;&lt;/div&gt;&lt;div&gt;&lt;b&gt;&lt;br&gt;&lt;/b&gt;&lt;/div&gt;&lt;div&gt;&lt;b&gt;&lt;br&gt;&lt;/b&gt;&lt;/div&gt;&lt;div&gt;&lt;b&gt;&lt;br&gt;&lt;/b&gt;&lt;/div&gt;&lt;div&gt;&lt;b&gt;&lt;br&gt;&lt;/b&gt;&lt;/div&gt;&lt;div&gt;&lt;b&gt;&lt;br&gt;&lt;/b&gt;&lt;/div&gt;&lt;div&gt;&lt;b&gt;&lt;br&gt;&lt;/b&gt;&lt;/div&gt;&lt;div&gt;&lt;b&gt;&lt;br&gt;&lt;/b&gt;&lt;/div&gt;&lt;div&gt;&lt;b&gt;&lt;br&gt;&lt;/b&gt;&lt;/div&gt;&lt;div&gt;&lt;b&gt;&lt;br&gt;&lt;/b&gt;&lt;/div&gt;&lt;div&gt;&lt;b&gt;&lt;br&gt;&lt;/b&gt;&lt;/div&gt;&lt;div&gt;&lt;b&gt;&lt;br&gt;&lt;/b&gt;&lt;/div&gt;&lt;div&gt;&lt;b&gt;&lt;br&gt;&lt;/b&gt;&lt;/div&gt;&lt;div&gt;&lt;b&gt;&lt;br&gt;&lt;/b&gt;&lt;/div&gt;&lt;div&gt;&lt;b&gt;&lt;br&gt;&lt;/b&gt;&lt;/div&gt;&lt;div&gt;&lt;b&gt;&lt;br&gt;&lt;/b&gt;&lt;/div&gt;&lt;div&gt;&lt;b&gt;&lt;br&gt;&lt;/b&gt;&lt;/div&gt;&lt;div&gt;&lt;b&gt;PRODUCERS&lt;/b&gt;&lt;/div&gt;" style="rounded=1;whiteSpace=wrap;html=1;dashed=1;" vertex="1" parent="szwfdQcTvEP1srSUGv-F-1">
          <mxGeometry x="90" y="30" width="230" height="420" as="geometry" />
        </mxCell>
        <mxCell id="_ucVeFDgrDlcd-M4NOFn-2" value="&lt;br&gt;&lt;div&gt;&lt;b&gt;&lt;br&gt;&lt;/b&gt;&lt;/div&gt;&lt;div&gt;&lt;b&gt;&lt;br&gt;&lt;/b&gt;&lt;/div&gt;&lt;div&gt;&lt;b&gt;&lt;br&gt;&lt;/b&gt;&lt;/div&gt;&lt;div&gt;&lt;b&gt;&lt;br&gt;&lt;/b&gt;&lt;/div&gt;&lt;div&gt;&lt;b&gt;&lt;br&gt;&lt;/b&gt;&lt;/div&gt;&lt;div&gt;&lt;b&gt;&lt;br&gt;&lt;/b&gt;&lt;/div&gt;&lt;div&gt;&lt;b&gt;&lt;br&gt;&lt;/b&gt;&lt;/div&gt;&lt;div&gt;&lt;b&gt;&lt;br&gt;&lt;/b&gt;&lt;/div&gt;&lt;div&gt;&lt;b&gt;PROCESSING&lt;br&gt;&lt;/b&gt;&lt;/div&gt;" style="rounded=1;whiteSpace=wrap;html=1;dashed=1;" vertex="1" parent="szwfdQcTvEP1srSUGv-F-1">
          <mxGeometry x="340" y="265" width="120" height="185" as="geometry" />
        </mxCell>
        <mxCell id="_ucVeFDgrDlcd-M4NOFn-5" value="&lt;div&gt;&lt;b&gt;Kinesis Agent &lt;/b&gt;(Filesystem monitoring based app)&lt;br&gt;&lt;/div&gt;" style="rounded=1;whiteSpace=wrap;html=1;" vertex="1" parent="szwfdQcTvEP1srSUGv-F-1">
          <mxGeometry x="145" y="60" width="120" height="60" as="geometry" />
        </mxCell>
        <mxCell id="_ucVeFDgrDlcd-M4NOFn-6" value="" style="edgeStyle=orthogonalEdgeStyle;rounded=0;orthogonalLoop=1;jettySize=auto;html=1;exitX=1;exitY=0.5;exitDx=0;exitDy=0;" edge="1" source="_ucVeFDgrDlcd-M4NOFn-1" parent="szwfdQcTvEP1srSUGv-F-1">
          <mxGeometry relative="1" as="geometry">
            <mxPoint x="360" y="135" as="targetPoint" />
          </mxGeometry>
        </mxCell>
        <mxCell id="_ucVeFDgrDlcd-M4NOFn-8" value="" style="edgeStyle=orthogonalEdgeStyle;rounded=0;orthogonalLoop=1;jettySize=auto;html=1;entryX=0;entryY=0.5;entryDx=0;entryDy=0;" edge="1" target="_ucVeFDgrDlcd-M4NOFn-0" parent="szwfdQcTvEP1srSUGv-F-1">
          <mxGeometry relative="1" as="geometry">
            <mxPoint x="440" y="135" as="sourcePoint" />
            <mxPoint x="500" y="135" as="targetPoint" />
          </mxGeometry>
        </mxCell>
        <mxCell id="_ucVeFDgrDlcd-M4NOFn-14" value="" style="edgeStyle=orthogonalEdgeStyle;rounded=0;orthogonalLoop=1;jettySize=auto;html=1;" edge="1" source="_ucVeFDgrDlcd-M4NOFn-18" parent="szwfdQcTvEP1srSUGv-F-1">
          <mxGeometry relative="1" as="geometry">
            <mxPoint x="400" y="305" as="sourcePoint" />
            <mxPoint x="400" y="195" as="targetPoint" />
          </mxGeometry>
        </mxCell>
        <mxCell id="_ucVeFDgrDlcd-M4NOFn-17" value="Amazon Kinesis Data Streams" style="outlineConnect=0;fontColor=#232F3E;gradientColor=none;strokeColor=#ffffff;fillColor=#232F3E;dashed=0;verticalLabelPosition=middle;verticalAlign=bottom;align=center;html=1;whiteSpace=wrap;fontSize=10;fontStyle=1;spacing=3;shape=mxgraph.aws4.productIcon;prIcon=mxgraph.aws4.kinesis_data_streams;" vertex="1" parent="szwfdQcTvEP1srSUGv-F-1">
          <mxGeometry x="165" y="145" width="80" height="120" as="geometry" />
        </mxCell>
        <mxCell id="_ucVeFDgrDlcd-M4NOFn-18" value="AWS Lambda" style="outlineConnect=0;fontColor=#232F3E;gradientColor=none;strokeColor=#ffffff;fillColor=#232F3E;dashed=0;verticalLabelPosition=middle;verticalAlign=bottom;align=center;html=1;whiteSpace=wrap;fontSize=10;fontStyle=1;spacing=3;shape=mxgraph.aws4.productIcon;prIcon=mxgraph.aws4.lambda;" vertex="1" parent="szwfdQcTvEP1srSUGv-F-1">
          <mxGeometry x="360" y="310" width="80" height="100" as="geometry" />
        </mxCell>
        <mxCell id="_ucVeFDgrDlcd-M4NOFn-19" value="&lt;div&gt;&lt;b&gt;Compute with SDK calls to firehose (EC2, Lambda etc)&lt;br&gt;&lt;/b&gt;&lt;/div&gt;" style="rounded=1;whiteSpace=wrap;html=1;" vertex="1" parent="szwfdQcTvEP1srSUGv-F-1">
          <mxGeometry x="145" y="280" width="120" height="130" as="geometry" />
        </mxCell>
        <mxCell id="_ucVeFDgrDlcd-M4NOFn-21" value="Amazon Kinesis Data Firehose" style="outlineConnect=0;fontColor=#232F3E;gradientColor=none;strokeColor=#ffffff;fillColor=#232F3E;dashed=0;verticalLabelPosition=middle;verticalAlign=bottom;align=center;html=1;whiteSpace=wrap;fontSize=10;fontStyle=1;spacing=3;shape=mxgraph.aws4.productIcon;prIcon=mxgraph.aws4.kinesis_data_firehose;" vertex="1" parent="szwfdQcTvEP1srSUGv-F-1">
          <mxGeometry x="360" y="70" width="80" height="120" as="geometry" />
        </mxCell>
        <mxCell id="_ucVeFDgrDlcd-M4NOFn-22" value="Amazon S3" style="outlineConnect=0;fontColor=#232F3E;gradientColor=none;strokeColor=#ffffff;fillColor=#232F3E;dashed=0;verticalLabelPosition=middle;verticalAlign=bottom;align=center;html=1;whiteSpace=wrap;fontSize=10;fontStyle=1;spacing=3;shape=mxgraph.aws4.productIcon;prIcon=mxgraph.aws4.s3;" vertex="1" parent="szwfdQcTvEP1srSUGv-F-1">
          <mxGeometry x="530" y="60" width="80" height="100" as="geometry" />
        </mxCell>
        <mxCell id="_ucVeFDgrDlcd-M4NOFn-23" value="&lt;div&gt;&lt;b&gt;Any HTTP &lt;br&gt;&lt;/b&gt;&lt;/div&gt;&lt;div&gt;&lt;b&gt;API&lt;/b&gt;&lt;/div&gt;" style="outlineConnect=0;dashed=0;verticalLabelPosition=bottom;verticalAlign=top;align=center;html=1;shape=mxgraph.aws3.http_protocol;fillColor=#5294CF;gradientColor=none;" vertex="1" parent="szwfdQcTvEP1srSUGv-F-1">
          <mxGeometry x="658.5" y="60" width="63" height="66" as="geometry" />
        </mxCell>
        <mxCell id="_ucVeFDgrDlcd-M4NOFn-26" value="&lt;b&gt;SPLUNK&lt;/b&gt;" style="rounded=1;whiteSpace=wrap;html=1;dashed=1;align=center;" vertex="1" parent="szwfdQcTvEP1srSUGv-F-1">
          <mxGeometry x="525" y="200" width="90" height="60" as="geometry" />
        </mxCell>
        <mxCell id="_ucVeFDgrDlcd-M4NOFn-27" value="Amazon Redshift" style="outlineConnect=0;fontColor=#232F3E;gradientColor=none;strokeColor=#ffffff;fillColor=#232F3E;dashed=0;verticalLabelPosition=middle;verticalAlign=bottom;align=center;html=1;whiteSpace=wrap;fontSize=10;fontStyle=1;spacing=3;shape=mxgraph.aws4.productIcon;prIcon=mxgraph.aws4.redshift;" vertex="1" parent="szwfdQcTvEP1srSUGv-F-1">
          <mxGeometry x="650" y="190" width="80" height="110" as="geometry" />
        </mxCell>
        <mxCell id="_ucVeFDgrDlcd-M4NOFn-28" value="Amazon Elasticsearch Service" style="outlineConnect=0;fontColor=#232F3E;gradientColor=none;strokeColor=#ffffff;fillColor=#232F3E;dashed=0;verticalLabelPosition=middle;verticalAlign=bottom;align=center;html=1;whiteSpace=wrap;fontSize=10;fontStyle=1;spacing=3;shape=mxgraph.aws4.productIcon;prIcon=mxgraph.aws4.elasticsearch_service;" vertex="1" parent="szwfdQcTvEP1srSUGv-F-1">
          <mxGeometry x="530" y="285" width="80" height="120" as="geometry" />
        </mxCell>
        <UserObject label="&lt;div&gt;(C) 2021 sudo-code&lt;/div&gt;&lt;div&gt;https://apexcoder7.github.io/&lt;/div&gt;" id="HxtrgfGqzyVoSKtLvLbc-0">
          <mxCell style="text;whiteSpace=wrap;html=1;labelBackgroundColor=#ffffff;fontSize=9;fontFamily=Courier New;strokeColor=#82b366;fillColor=#ffffff;" vertex="1" parent="szwfdQcTvEP1srSUGv-F-1">
            <mxGeometry x="330" y="470" width="165" height="30" as="geometry" />
          </mxCell>
        </UserObject>
      </root>
    </mxGraphModel>
  </diagram>
  <diagram id="2EVDT8igMiKEl8rF2_VG" name="KDA">
    <mxGraphModel dx="1422" dy="695" grid="1" gridSize="10" guides="1" tooltips="1" connect="1" arrows="1" fold="1" page="1" pageScale="1" pageWidth="850" pageHeight="1100" math="0" shadow="0">
      <root>
        <mxCell id="nTIETpq5PiidVAEhVJ_t-0" />
        <mxCell id="nTIETpq5PiidVAEhVJ_t-1" parent="nTIETpq5PiidVAEhVJ_t-0" />
        <mxCell id="dRWrrqMjo80eOArlloON-0" value="&lt;div&gt;&lt;b&gt;&lt;br&gt;&lt;/b&gt;&lt;/div&gt;&lt;div&gt;&lt;b&gt;&lt;br&gt;&lt;/b&gt;&lt;/div&gt;&lt;div&gt;&lt;b&gt;&lt;br&gt;&lt;/b&gt;&lt;/div&gt;&lt;div&gt;&lt;b&gt;&lt;br&gt;&lt;/b&gt;&lt;/div&gt;&lt;div&gt;&lt;b&gt;&lt;br&gt;&lt;/b&gt;&lt;/div&gt;&lt;div&gt;&lt;b&gt;&lt;br&gt;&lt;/b&gt;&lt;/div&gt;&lt;div&gt;&lt;b&gt;&lt;br&gt;&lt;/b&gt;&lt;/div&gt;&lt;div&gt;&lt;b&gt;&lt;br&gt;&lt;/b&gt;&lt;/div&gt;&lt;div&gt;&lt;b&gt;&lt;br&gt;&lt;/b&gt;&lt;/div&gt;&lt;div&gt;&lt;b&gt;&lt;br&gt;&lt;/b&gt;&lt;/div&gt;&lt;div&gt;&lt;b&gt;&lt;br&gt;&lt;/b&gt;&lt;/div&gt;&lt;div&gt;&lt;b&gt;CONSUMERS&lt;/b&gt;&lt;/div&gt;" style="rounded=1;whiteSpace=wrap;html=1;dashed=1;" vertex="1" parent="nTIETpq5PiidVAEhVJ_t-1">
          <mxGeometry x="520" y="30" width="320" height="240" as="geometry" />
        </mxCell>
        <mxCell id="dRWrrqMjo80eOArlloON-1" value="&lt;div&gt;&lt;b&gt;&lt;br&gt;&lt;/b&gt;&lt;/div&gt;&lt;div&gt;&lt;b&gt;&lt;br&gt;&lt;/b&gt;&lt;/div&gt;&lt;div&gt;&lt;b&gt;&lt;br&gt;&lt;/b&gt;&lt;/div&gt;&lt;div&gt;&lt;b&gt;&lt;br&gt;&lt;/b&gt;&lt;/div&gt;&lt;div&gt;&lt;b&gt;&lt;br&gt;&lt;/b&gt;&lt;/div&gt;&lt;div&gt;&lt;b&gt;&lt;br&gt;&lt;/b&gt;&lt;/div&gt;&lt;div&gt;&lt;b&gt;&lt;br&gt;&lt;/b&gt;&lt;/div&gt;&lt;div&gt;&lt;b&gt;&lt;br&gt;&lt;/b&gt;&lt;/div&gt;&lt;div&gt;&lt;b&gt;&lt;br&gt;&lt;/b&gt;&lt;/div&gt;&lt;div&gt;&lt;b&gt;&lt;br&gt;&lt;/b&gt;&lt;/div&gt;&lt;div&gt;&lt;b&gt;&lt;br&gt;&lt;/b&gt;&lt;/div&gt;&lt;div&gt;&lt;b&gt;PRODUCERS&lt;/b&gt;&lt;/div&gt;" style="rounded=1;whiteSpace=wrap;html=1;dashed=1;" vertex="1" parent="nTIETpq5PiidVAEhVJ_t-1">
          <mxGeometry x="20" y="30" width="260" height="240" as="geometry" />
        </mxCell>
        <mxCell id="dRWrrqMjo80eOArlloON-2" value="&lt;br&gt;&lt;div&gt;&lt;b&gt;&lt;br&gt;&lt;/b&gt;&lt;/div&gt;&lt;div&gt;&lt;b&gt;&lt;br&gt;&lt;/b&gt;&lt;/div&gt;&lt;div&gt;&lt;b&gt;&lt;br&gt;&lt;/b&gt;&lt;/div&gt;&lt;div&gt;&lt;b&gt;&lt;br&gt;&lt;/b&gt;&lt;/div&gt;&lt;div&gt;&lt;b&gt;&lt;br&gt;&lt;/b&gt;&lt;/div&gt;&lt;div&gt;&lt;b&gt;&lt;br&gt;&lt;/b&gt;&lt;/div&gt;&lt;div&gt;&lt;b&gt;&lt;br&gt;&lt;/b&gt;&lt;/div&gt;&lt;div&gt;&lt;b&gt;&lt;br&gt;&lt;/b&gt;&lt;/div&gt;&lt;div&gt;&lt;b&gt;&lt;br&gt;&lt;/b&gt;&lt;/div&gt;&lt;div&gt;&lt;b&gt;PROCESSING&lt;br&gt;&lt;/b&gt;&lt;/div&gt;" style="rounded=1;whiteSpace=wrap;html=1;dashed=1;" vertex="1" parent="nTIETpq5PiidVAEhVJ_t-1">
          <mxGeometry x="250" y="300" width="300" height="190" as="geometry" />
        </mxCell>
        <mxCell id="dRWrrqMjo80eOArlloON-6" value="" style="edgeStyle=orthogonalEdgeStyle;rounded=0;orthogonalLoop=1;jettySize=auto;html=1;exitX=1;exitY=0.5;exitDx=0;exitDy=0;" edge="1" source="dRWrrqMjo80eOArlloON-1" parent="nTIETpq5PiidVAEhVJ_t-1">
          <mxGeometry relative="1" as="geometry">
            <mxPoint x="250" y="165" as="sourcePoint" />
            <mxPoint x="360" y="135" as="targetPoint" />
          </mxGeometry>
        </mxCell>
        <mxCell id="dRWrrqMjo80eOArlloON-8" value="" style="edgeStyle=orthogonalEdgeStyle;rounded=0;orthogonalLoop=1;jettySize=auto;html=1;entryX=0;entryY=0.5;entryDx=0;entryDy=0;" edge="1" target="dRWrrqMjo80eOArlloON-0" parent="nTIETpq5PiidVAEhVJ_t-1">
          <mxGeometry relative="1" as="geometry">
            <mxPoint x="440" y="135" as="sourcePoint" />
            <Array as="points">
              <mxPoint x="480" y="135" />
              <mxPoint x="480" y="150" />
            </Array>
          </mxGeometry>
        </mxCell>
        <mxCell id="dRWrrqMjo80eOArlloON-12" value="" style="edgeStyle=orthogonalEdgeStyle;rounded=0;orthogonalLoop=1;jettySize=auto;html=1;" edge="1" parent="nTIETpq5PiidVAEhVJ_t-1">
          <mxGeometry relative="1" as="geometry">
            <mxPoint x="380" y="360" as="sourcePoint" />
            <mxPoint x="400" y="195" as="targetPoint" />
          </mxGeometry>
        </mxCell>
        <mxCell id="dRWrrqMjo80eOArlloON-14" value="" style="edgeStyle=orthogonalEdgeStyle;rounded=0;orthogonalLoop=1;jettySize=auto;html=1;" edge="1" parent="nTIETpq5PiidVAEhVJ_t-1">
          <mxGeometry relative="1" as="geometry">
            <mxPoint x="425" y="360" as="sourcePoint" />
            <mxPoint x="400" y="195" as="targetPoint" />
          </mxGeometry>
        </mxCell>
        <mxCell id="dRWrrqMjo80eOArlloON-17" value="Amazon Kinesis Data Analytics" style="outlineConnect=0;fontColor=#232F3E;gradientColor=none;strokeColor=#ffffff;fillColor=#232F3E;dashed=0;verticalLabelPosition=middle;verticalAlign=bottom;align=center;html=1;whiteSpace=wrap;fontSize=10;fontStyle=1;spacing=3;shape=mxgraph.aws4.productIcon;prIcon=mxgraph.aws4.kinesis_data_analytics;" vertex="1" parent="nTIETpq5PiidVAEhVJ_t-1">
          <mxGeometry x="360" y="75" width="80" height="120" as="geometry" />
        </mxCell>
        <mxCell id="dRWrrqMjo80eOArlloON-19" value="Amazon Kinesis Data Firehose" style="outlineConnect=0;fontColor=#232F3E;gradientColor=none;strokeColor=#ffffff;fillColor=#232F3E;dashed=0;verticalLabelPosition=middle;verticalAlign=bottom;align=center;html=1;whiteSpace=wrap;fontSize=10;fontStyle=1;spacing=3;shape=mxgraph.aws4.productIcon;prIcon=mxgraph.aws4.kinesis_data_firehose;" vertex="1" parent="nTIETpq5PiidVAEhVJ_t-1">
          <mxGeometry x="50" y="70" width="80" height="120" as="geometry" />
        </mxCell>
        <mxCell id="dRWrrqMjo80eOArlloON-20" value="Amazon Kinesis Data Streams" style="outlineConnect=0;fontColor=#232F3E;gradientColor=none;strokeColor=#ffffff;fillColor=#232F3E;dashed=0;verticalLabelPosition=middle;verticalAlign=bottom;align=center;html=1;whiteSpace=wrap;fontSize=10;fontStyle=1;spacing=3;shape=mxgraph.aws4.productIcon;prIcon=mxgraph.aws4.kinesis_data_streams;" vertex="1" parent="nTIETpq5PiidVAEhVJ_t-1">
          <mxGeometry x="170" y="70" width="80" height="120" as="geometry" />
        </mxCell>
        <mxCell id="dRWrrqMjo80eOArlloON-21" value="&lt;b&gt;Flink App&lt;br&gt;&lt;/b&gt;" style="outlineConnect=0;dashed=0;verticalLabelPosition=bottom;verticalAlign=top;align=center;html=1;shape=mxgraph.aws3.kinesis_enabled_app;fillColor=#F58534;gradientColor=none;" vertex="1" parent="nTIETpq5PiidVAEhVJ_t-1">
          <mxGeometry x="320" y="330" width="64.5" height="67.5" as="geometry" />
        </mxCell>
        <mxCell id="ZmEUnzz3KpJLgu5j8LQn-0" value="&lt;div&gt;&lt;b&gt;&lt;br&gt;&lt;/b&gt;&lt;/div&gt;&lt;div&gt;&lt;b&gt;&lt;br&gt;&lt;/b&gt;&lt;/div&gt;&lt;div&gt;&lt;b&gt;&lt;br&gt;&lt;/b&gt;&lt;/div&gt;&lt;div&gt;&lt;b&gt;&lt;br&gt;&lt;/b&gt;&lt;/div&gt;&lt;div&gt;&lt;b&gt;&lt;br&gt;&lt;/b&gt;&lt;/div&gt;&lt;div&gt;&lt;b&gt;SQL Query&lt;/b&gt;&lt;/div&gt;" style="html=1;aspect=fixed;strokeColor=none;shadow=0;align=center;verticalAlign=top;fillColor=#3B8DF1;shape=mxgraph.gcp2.big_query;dashed=1;" vertex="1" parent="nTIETpq5PiidVAEhVJ_t-1">
          <mxGeometry x="425" y="330" width="73.01" height="73.75" as="geometry" />
        </mxCell>
        <mxCell id="ZmEUnzz3KpJLgu5j8LQn-1" value="Amazon Kinesis Data Firehose" style="outlineConnect=0;fontColor=#232F3E;gradientColor=none;strokeColor=#ffffff;fillColor=#232F3E;dashed=0;verticalLabelPosition=middle;verticalAlign=bottom;align=center;html=1;whiteSpace=wrap;fontSize=10;fontStyle=1;spacing=3;shape=mxgraph.aws4.productIcon;prIcon=mxgraph.aws4.kinesis_data_firehose;" vertex="1" parent="nTIETpq5PiidVAEhVJ_t-1">
          <mxGeometry x="545" y="70" width="80" height="120" as="geometry" />
        </mxCell>
        <mxCell id="ZmEUnzz3KpJLgu5j8LQn-2" value="Amazon Kinesis Data Streams" style="outlineConnect=0;fontColor=#232F3E;gradientColor=none;strokeColor=#ffffff;fillColor=#232F3E;dashed=0;verticalLabelPosition=middle;verticalAlign=bottom;align=center;html=1;whiteSpace=wrap;fontSize=10;fontStyle=1;spacing=3;shape=mxgraph.aws4.productIcon;prIcon=mxgraph.aws4.kinesis_data_streams;" vertex="1" parent="nTIETpq5PiidVAEhVJ_t-1">
          <mxGeometry x="645" y="70" width="80" height="120" as="geometry" />
        </mxCell>
        <mxCell id="ZmEUnzz3KpJLgu5j8LQn-3" value="AWS Lambda" style="outlineConnect=0;fontColor=#232F3E;gradientColor=none;strokeColor=#ffffff;fillColor=#232F3E;dashed=0;verticalLabelPosition=middle;verticalAlign=bottom;align=center;html=1;whiteSpace=wrap;fontSize=10;fontStyle=1;spacing=3;shape=mxgraph.aws4.productIcon;prIcon=mxgraph.aws4.lambda;" vertex="1" parent="nTIETpq5PiidVAEhVJ_t-1">
          <mxGeometry x="745" y="70" width="80" height="100" as="geometry" />
        </mxCell>
        <UserObject label="&lt;div&gt;(C) 2021 sudo-code&lt;/div&gt;&lt;div&gt;https://apexcoder7.github.io/&lt;/div&gt;" id="ZsEvrahDPPBsKMJBh-i0-0">
          <mxCell style="text;whiteSpace=wrap;html=1;labelBackgroundColor=#ffffff;fontSize=9;fontFamily=Courier New;strokeColor=#82b366;fillColor=#ffffff;" vertex="1" parent="nTIETpq5PiidVAEhVJ_t-1">
            <mxGeometry x="670" y="450" width="165" height="30" as="geometry" />
          </mxCell>
        </UserObject>
      </root>
    </mxGraphModel>
  </diagram>
</mxfile>
